<svg width="24" height="24" viewBox="0 0 24 24" fill="none" xmlns="http://www.w3.org/2000/svg">
<path d="M15.6236 15.9769C15.4787 15.8115 15.4063 15.6282 15.4063 15.4269C15.4063 15.2256 15.4787 15.0525 15.6236 14.9077L17.5313 13H9.86585C9.65304 13 9.47484 12.9282 9.33125 12.7846C9.18767 12.641 9.11588 12.4628 9.11588 12.25C9.11588 12.0372 9.18767 11.859 9.33125 11.7154C9.47484 11.5718 9.65304 11.5 9.86585 11.5H17.5313L15.614 9.5827C15.4652 9.43398 15.3909 9.25899 15.3909 9.05772C15.3909 8.85644 15.4684 8.67823 15.6236 8.5231C15.7684 8.36798 15.9415 8.29043 16.1428 8.29043C16.3441 8.29043 16.5171 8.36286 16.662 8.50772L19.7716 11.6173C19.8652 11.7109 19.9312 11.8096 19.9697 11.9135C20.0081 12.0173 20.0274 12.1295 20.0274 12.25C20.0274 12.3705 20.0081 12.4827 19.9697 12.5865C19.9312 12.6904 19.8652 12.7891 19.7716 12.8827L16.6524 16.0019C16.4934 16.1608 16.3184 16.2326 16.1274 16.2172C15.9364 16.2019 15.7684 16.1217 15.6236 15.9769ZM5.40435 21C4.89924 21 4.47168 20.825 4.12168 20.475C3.77168 20.125 3.59668 19.6974 3.59668 19.1923V5.3077C3.59668 4.80257 3.77168 4.375 4.12168 4.025C4.47168 3.675 4.89924 3.5 5.40435 3.5H11.3659C11.5787 3.5 11.7569 3.5718 11.9005 3.7154C12.0441 3.85898 12.1159 4.03718 12.1159 4.25C12.1159 4.46282 12.0441 4.64102 11.9005 4.7846C11.7569 4.92818 11.5787 4.99997 11.3659 4.99997H5.40435C5.32742 4.99997 5.2569 5.03203 5.1928 5.09613C5.12869 5.16024 5.09663 5.23077 5.09663 5.3077V19.1923C5.09663 19.2692 5.12869 19.3398 5.1928 19.4039C5.2569 19.468 5.32742 19.5 5.40435 19.5H11.3659C11.5787 19.5 11.7569 19.5718 11.9005 19.7154C12.0441 19.859 12.1159 20.0372 12.1159 20.25C12.1159 20.4628 12.0441 20.641 11.9005 20.7846C11.7569 20.9282 11.5787 21 11.3659 21H5.40435Z" fill="#A8A8A8"/>
</svg>
