<svg width="24" height="24" viewBox="0 0 24 24" fill="none" xmlns="http://www.w3.org/2000/svg">
<g id="add_circle_FILL0_wght300_GRAD0_opsz24 1">
<path id="Vector" d="M12 21.5C10.6807 21.5 9.44325 21.2519 8.2875 20.7557C7.13173 20.2596 6.12628 19.5839 5.27115 18.7288C4.41603 17.8737 3.7404 16.8682 3.24425 15.7125C2.74808 14.5567 2.5 13.3192 2.5 12C2.5 10.6807 2.74808 9.44325 3.24425 8.2875C3.7404 7.13173 4.41603 6.12628 5.27115 5.27115C6.12628 4.41603 7.13173 3.7404 8.2875 3.24425C9.44325 2.74808 10.6807 2.5 12 2.5C13.3192 2.5 14.5567 2.74808 15.7125 3.24425C16.8682 3.7404 17.8737 4.41603 18.7288 5.27115C19.5839 6.12628 20.2596 7.13173 20.7557 8.2875C21.2519 9.44325 21.5 10.6807 21.5 12C21.5 13.3192 21.2519 14.5567 20.7557 15.7125C20.2596 16.8682 19.5839 17.8737 18.7288 18.7288C17.8737 19.5839 16.8682 20.2596 15.7125 20.7557C14.5567 21.2519 13.3192 21.5 12 21.5ZM12 20C14.2166 20 16.1041 19.2208 17.6625 17.6625C19.2208 16.1041 20 14.2166 20 12C20 9.78331 19.2208 7.89581 17.6625 6.33748C16.1041 4.77914 14.2166 3.99997 12 3.99997C9.78331 3.99997 7.89581 4.77914 6.33748 6.33748C4.77914 7.89581 3.99998 9.78331 3.99998 12C3.99998 14.2166 4.77914 16.1041 6.33748 17.6625C7.89581 19.2208 9.78331 20 12 20Z" fill="#52C6D8"/>
<path id="Vector_2" d="M12.0003 16.75C12.2129 16.75 12.391 16.6781 12.5346 16.5344C12.6782 16.3906 12.7499 16.2125 12.7499 16V12.75H16.025C16.2314 12.75 16.4038 12.678 16.5423 12.5342C16.6807 12.3904 16.75 12.2122 16.75 11.9997C16.75 11.7871 16.6781 11.609 16.5344 11.4654C16.3906 11.3218 16.2125 11.25 16 11.25H12.7499V7.97497C12.7499 7.76857 12.6781 7.59614 12.5343 7.45767C12.3904 7.31922 12.2122 7.25 11.9997 7.25C11.7871 7.25 11.609 7.32187 11.4654 7.4656C11.3218 7.60935 11.25 7.78747 11.25 7.99997V11.25H7.97497C7.76857 11.25 7.59614 11.3219 7.45767 11.4657C7.31922 11.6095 7.25 11.7877 7.25 12.0003C7.25 12.2129 7.32187 12.391 7.46562 12.5346C7.60936 12.6782 7.78747 12.75 7.99997 12.75H11.25V16.025C11.25 16.2314 11.3219 16.4038 11.4657 16.5423C11.6095 16.6807 11.7877 16.75 12.0003 16.75Z" fill="#52C6D8"/>
</g>
</svg>
